<?xml version="1.0" encoding="UTF-8" standalone="no"?>
<!DOCTYPE svg PUBLIC "-//W3C//DTD SVG 1.1//EN" "http://www.w3.org/Graphics/SVG/1.1/DTD/svg11.dtd">
<svg width="100%" height="100%" viewBox="0 0 200 200" version="1.1" xmlns="http://www.w3.org/2000/svg" xmlns:xlink="http://www.w3.org/1999/xlink" xml:space="preserve" xmlns:serif="http://www.serif.com/" style="fill-rule:evenodd;clip-rule:evenodd;stroke-linecap:round;">
    <g transform="matrix(0.671356,-0.952161,0.952161,0.671356,95.8267,98.4339)">
        <path d="M46.7,-42.9C63,-30.3 80.5,-15.2 82.3,1.8C84,18.7 70.1,37.4 53.7,49.7C37.4,62.1 18.7,68 -0.7,68.7C-20.1,69.4 -40.1,64.8 -56.2,52.5C-72.3,40.1 -84.3,20.1 -83.3,1C-82.2,-18 -68.1,-36 -52.1,-48.5C-36,-61.1 -18,-68.2 -1.4,-66.7C15.2,-65.3 30.3,-55.4 46.7,-42.9Z" style="fill:rgb(27,38,79);fill-rule:nonzero;"/>
    </g>
    <g transform="matrix(1.16504,0,0,1.16504,100.534,94.3199)">
        <path d="M46.7,-42.9C63,-30.3 80.5,-15.2 82.3,1.8C84,18.7 70.1,37.4 53.7,49.7C37.4,62.1 18.7,68 -0.7,68.7C-20.1,69.4 -40.1,64.8 -56.2,52.5C-72.3,40.1 -84.3,20.1 -83.3,1C-82.2,-18 -68.1,-36 -52.1,-48.5C-36,-61.1 -18,-68.2 -1.4,-66.7C15.2,-65.3 30.3,-55.4 46.7,-42.9Z" style="fill:rgb(53,68,177);fill-rule:nonzero;"/>
    </g>
    <g transform="matrix(1.89792,0,0,1.89792,-92.4241,-94.3088)">
        <g transform="matrix(1,0,0,1,67.1345,65.7183)">
            <path d="M37.73,25.258L37.73,9.631C37.73,7.257 35.806,5.333 33.433,5.333C31.059,5.333 29.135,7.257 29.135,9.631L29.135,22.523" style="fill:none;fill-rule:nonzero;stroke:rgb(249,247,244);stroke-width:2.38px;"/>
        </g>
        <g transform="matrix(1,0,0,1,67.1345,65.7183)">
            <path d="M43.589,34.243L49.391,14.903C50.068,12.647 48.77,10.273 46.505,9.626C44.251,8.982 41.905,10.296 41.274,12.553L37.729,25.257" style="fill:none;fill-rule:nonzero;stroke:rgb(249,247,244);stroke-width:2.38px;"/>
        </g>
        <g transform="matrix(1,0,0,1,67.1345,65.7183)">
            <path d="M20.318,24.666L23.133,30.91C24.106,33.067 23.151,35.605 20.997,36.587C18.832,37.574 16.276,36.612 15.298,34.442L12.483,28.199C11.51,26.041 12.465,23.503 14.618,22.522C16.784,21.535 19.34,22.496 20.318,24.666Z" style="fill:none;fill-rule:nonzero;stroke:rgb(249,247,244);stroke-width:2.38px;"/>
        </g>
        <g transform="matrix(1,0,0,1,67.1345,65.7183)">
            <path d="M31.251,32.697C31.797,31.184 31.733,29.518 31.071,28.051L28.21,21.703C27.248,19.57 24.736,18.625 22.607,19.596C20.439,20.584 19.517,23.169 20.57,25.306L20.932,26.04" style="fill:none;fill-rule:nonzero;stroke:rgb(249,247,244);stroke-width:2.38px;"/>
        </g>
        <g transform="matrix(1,0,0,1,67.1345,65.7183)">
            <path d="M36.951,47.138L38.263,44.514C38.394,44.253 38.256,43.937 37.976,43.854L28.507,41.07C26.609,40.511 25.381,38.677 25.588,36.709C25.823,34.478 27.809,32.85 30.043,33.058L42.811,34.246C42.811,34.246 52.969,35.809 49.453,45.966C45.937,56.123 44.765,59.639 36.951,59.639L23.668,59.639C17.411,59.639 12.339,54.567 12.339,48.31L11.948,26.432" style="fill:none;fill-rule:nonzero;stroke:rgb(249,247,244);stroke-width:2.38px;"/>
        </g>
    </g>
</svg>
